<svg xmlns="http://www.w3.org/2000/svg" width="16" height="16"><defs><linearGradient id="a"><stop offset="0" stop-color="#51b5e3" stop-opacity=".247"/><stop offset="1" stop-color="#51b5e3"/></linearGradient><mask maskUnits="userSpaceOnUse" id="b"><path d="M-1 0h18v11H-1z" fill="#fff"/><circle cx="13.5" cy="2.5" r="4" paint-order="stroke fill markers"/></mask></defs><g paint-order="stroke fill markers"><g mask="url(#b)"><path d="M1 1h14c.554 0 1 .446 1 1v7c0 .554-.446 1-1 1H1c-.554 0-1-.446-1-1V2c0-.554.446-1 1-1z" fill="#51e384"/><path d="M14 8V3.5c0-.277-.223-.5-.5-.5h-11c-.277 0-.5.223-.5.5V8z" fill="#b2ffcd"/></g><g fill="#00be42"><path d="M12.75 0h1.5v5h-1.5z"/><path d="M16 1.75v1.5h-5v-1.5z"/></g><path d="M0 8v6c0 .554.446 1 1 1h14c.554 0 1-.446 1-1V8z" fill="#aabcc8"/><path d="M14 8v4.5c0 .277-.223.5-.5.5h-11a.499.499 0 01-.5-.5V8z" fill="#d1e1ec"/></g></svg>