<svg xmlns="http://www.w3.org/2000/svg" width="16" height="16"><defs><mask maskUnits="userSpaceOnUse" id="b"><path d="M-1-1h18v18H-1z" fill="#fff"/><path d="M2 5.5h5V2l8 6-8 6v-3.5H2z" stroke="#000" stroke-width="0"/></mask><mask maskUnits="userSpaceOnUse" id="c"><path d="M-1-1h8v18h-8z" fill="#fff"/><path d="M2 5.5h5V2l8 6-8 6v-3.5H2z" stroke="#000" stroke-width="0"/></mask><linearGradient id="a"><stop offset="0" stop-color="#51b5e3" stop-opacity=".247"/><stop offset="1" stop-color="#51b5e3"/></linearGradient></defs><path style="line-height:normal;font-variant-ligatures:normal;font-variant-position:normal;font-variant-caps:normal;font-variant-numeric:normal;font-variant-alternates:normal;font-variant-east-asian:normal;font-feature-settings:normal;font-variation-settings:normal;text-indent:0;text-align:start;text-decoration-line:none;text-decoration-style:solid;text-decoration-color:#000;text-transform:none;text-orientation:mixed;white-space:normal;shape-padding:0;shape-margin:0;inline-size:0;isolation:auto;mix-blend-mode:normal;solid-color:#000;solid-opacity:1" d="M0 0v16h16V0zm1 1h4v4H1zm5 0h4v4H6zm5 0h4v4h-4zM1 6h4v4H1zm5 0h4v4H6zm5 0h4v4h-4zM1 11h4v4H1zm5 0h4v4H6zm5 0h4v4h-4z" mask="url(#b)" color="#000" font-weight="400" font-family="sans-serif" overflow="visible" fill="#aabcc8" fill-opacity=".497" paint-order="stroke fill markers"/><path style="line-height:normal;font-variant-ligatures:normal;font-variant-position:normal;font-variant-caps:normal;font-variant-numeric:normal;font-variant-alternates:normal;font-variant-east-asian:normal;font-feature-settings:normal;font-variation-settings:normal;text-indent:0;text-align:start;text-decoration-line:none;text-decoration-style:solid;text-decoration-color:#000;text-transform:none;text-orientation:mixed;white-space:normal;shape-padding:0;shape-margin:0;inline-size:0;isolation:auto;mix-blend-mode:normal;solid-color:#000;solid-opacity:1" d="M0 0v16h16V0zm1 1h14v14H1z" color="#000" font-weight="400" font-family="sans-serif" overflow="visible" fill="#aabcc8" paint-order="stroke fill markers"/><path mask="url(#c)" d="M1.033 1.033h3.934v13.934H1.033z" fill="#b1ddf9" stroke="#51b5e3" stroke-width="2.065" paint-order="stroke fill markers"/><path d="M3 6.5h5V4l5 4-5 4V9.5H3z" fill="#51b5e3"/></svg>