<svg xmlns="http://www.w3.org/2000/svg" width="16" height="16"><defs><linearGradient id="a"><stop offset="0" stop-color="#51b5e3" stop-opacity=".247"/><stop offset="1" stop-color="#51b5e3"/></linearGradient><mask maskUnits="userSpaceOnUse" id="b"><path d="M-1-1h18v18H-1z" fill="#fff"/><circle cx="-8" cy="-8" r="4" transform="scale(-1)" stroke-width="0" paint-order="stroke markers fill"/></mask></defs><g mask="url(#b)" transform="rotate(90 8 8)" paint-order="stroke fill markers"><path style="line-height:normal;font-variant-ligatures:normal;font-variant-position:normal;font-variant-caps:normal;font-variant-numeric:normal;font-variant-alternates:normal;font-variant-east-asian:normal;font-feature-settings:normal;font-variation-settings:normal;text-indent:0;text-align:start;text-decoration-line:none;text-decoration-style:solid;text-decoration-color:#000;text-transform:none;text-orientation:mixed;white-space:normal;shape-padding:0;shape-margin:0;inline-size:0;isolation:auto;mix-blend-mode:normal;solid-color:#000;solid-opacity:1" d="M16 16V0H0v16zm-1-1h-4v-4h4zm-5 0H6v-4h4zm-5 0H1v-4h4zm10-5h-4V6h4zm-5 0H6V6h4zm-5 0H1V6h4zm10-5h-4V1h4zm-5 0H6V1h4zM5 5H1V1h4z" color="#000" font-weight="400" font-family="sans-serif" overflow="visible" fill="#aabcc8" fill-opacity=".497"/><path style="line-height:normal;font-variant-ligatures:normal;font-variant-position:normal;font-variant-caps:normal;font-variant-numeric:normal;font-variant-alternates:normal;font-variant-east-asian:normal;font-feature-settings:normal;font-variation-settings:normal;text-indent:0;text-align:start;text-decoration-line:none;text-decoration-style:solid;text-decoration-color:#000;text-transform:none;text-orientation:mixed;white-space:normal;shape-padding:0;shape-margin:0;inline-size:0;isolation:auto;mix-blend-mode:normal;solid-color:#000;solid-opacity:1" d="M16 16V0H0v16zm-1-1H1V1h14z" color="#000" font-weight="400" font-family="sans-serif" overflow="visible" fill="#aabcc8"/><path d="M9.967 14.967H6.033V1.033h3.934z" fill="#ebc5c8" stroke="#ff8699" stroke-width="2.065"/></g><path d="M5.702 6.763L6.939 8 5.702 9.237l1.06 1.061L8 9.061l1.237 1.237 1.061-1.06L9.061 8l1.237-1.237-1.06-1.061L8 6.939 6.763 5.702z" fill="#ff3353" paint-order="stroke markers fill"/></svg>