<svg xmlns="http://www.w3.org/2000/svg" width="16" height="16"><defs><linearGradient id="a"><stop offset="0" stop-color="#51b5e3" stop-opacity=".247"/><stop offset="1" stop-color="#51b5e3"/></linearGradient><mask maskUnits="userSpaceOnUse" id="b"><path d="M-1 0h18v16H-1z" fill="#fff"/><circle cx="13.5" cy="2.5" r="4" paint-order="stroke fill markers"/></mask></defs><g transform="matrix(1 0 0 -1 0 16)" mask="url(#b)" paint-order="stroke fill markers"><path d="M1 1h14c.554 0 1 .446 1 1v7c0 .554-.446 1-1 1H1c-.554 0-1-.446-1-1V2c0-.554.446-1 1-1z" fill="#ff8699"/><path d="M14 8V3.5c0-.277-.223-.5-.5-.5h-11c-.277 0-.5.223-.5.5V8z" fill="#ebc5c8"/><g><path d="M0 8v6c0 .554.446 1 1 1h14c.554 0 1-.446 1-1V8z" fill="#aabcc8"/><path d="M14 8v4.5c0 .277-.223.5-.5.5h-11a.499.499 0 01-.5-.5V8z" fill="#d1e1ec"/></g></g><path fill="#ff3353" paint-order="stroke fill markers" d="M14.737 15.798l1.061-1.06-3.535-3.536-1.061 1.06z"/><path fill="#ff3353" paint-order="stroke fill markers" d="M11.202 14.737l1.06 1.061 3.536-3.535-1.06-1.061z"/></svg>